<svg xmlns="http://www.w3.org/2000/svg" height="1em" viewBox="0 0 640 512"><!--! Font Awesome Pro 6.4.2 by @fontawesome - https://fontawesome.com License - https://fontawesome.com/license (Commercial License) Copyright 2023 Fonticons, Inc. --><path d="M0 256c0-13.3 10.7-24 24-24c90.7 0 181.3 0 272 0c0-13.3 0-26.7 0-40c-18.7 0-37.3 0-56 0c-26.5 0-48-21.5-48-48c0-32 0-64 0-96c0-26.5 21.5-48 48-48c53.3 0 106.7 0 160 0c26.5 0 48 21.5 48 48c0 32 0 64 0 96c0 26.5-21.5 48-48 48c-18.7 0-37.3 0-56 0c0 13.3 0 26.7 0 40c13.4 0 26.9 0 40.3 0c-16.3 13.4-30.1 29.6-40.7 48c-53.2 0-106.4 0-159.5 0c0 13.3 0 26.7 0 40c18.7 0 37.3 0 56 0c26.5 0 48 21.5 48 48c0 32 0 64 0 96c0 26.5-21.5 48-48 48c-53.3 0-106.7 0-160 0c-26.5 0-48-21.5-48-48c0-32 0-64 0-96c0-26.5 21.5-48 48-48c18.7 0 37.3 0 56 0c0-13.3 0-26.7 0-40c-37.3 0-74.7 0-112 0c-13.3 0-24-10.7-24-24zM80 368c0 32 0 64 0 96c53.3 0 106.7 0 160 0c0-32 0-64 0-96L80 368zM240 48c0 32 0 64 0 96c53.3 0 106.7 0 160 0c0-32 0-64 0-96L240 48zM352 368c0-79.5 64.5-144 144-144s144 64.5 144 144s-64.5 144-144 144s-144-64.5-144-144zm.3 101.6c11.5 16.3 25.8 30.5 42 42.1c-22-2.6-39.4-20.1-42-42.1zm84.4-160.9c-6.2 6.2-6.2 16.4 0 22.6c12.2 12.2 24.5 24.5 36.7 36.7c-12.2 12.2-24.5 24.5-36.7 36.7c-6.2 6.2-6.2 16.4 0 22.6s16.4 6.2 22.6 0c12.2-12.2 24.5-24.5 36.7-36.7c12.2 12.2 24.5 24.5 36.7 36.7c6.2 6.2 16.4 6.2 22.6 0s6.2-16.4 0-22.6c-12.2-12.2-24.5-24.5-36.7-36.7c12.2-12.2 24.5-24.5 36.7-36.7c6.2-6.2 6.2-16.4 0-22.6s-16.4-6.2-22.6 0c-12.2 12.2-24.5 24.5-36.7 36.7c-12.2-12.2-24.5-24.5-36.7-36.7c-6.2-6.2-16.4-6.2-22.6 0zm171-76.7l8.3 0c13.3 0 24 10.7 24 24c0 3-.6 5.9-1.6 8.6c-8.8-12.1-19.2-23.1-30.8-32.6z"/></svg>
