<svg xmlns="http://www.w3.org/2000/svg" height="1em" viewBox="0 0 640 512"><!--! Font Awesome Pro 6.4.2 by @fontawesome - https://fontawesome.com License - https://fontawesome.com/license (Commercial License) Copyright 2023 Fonticons, Inc. --><path d="M0 256c0-13.3 10.7-24 24-24c90.7 0 181.3 0 272 0c0-13.3 0-26.7 0-40c-18.7 0-37.3 0-56 0c-26.5 0-48-21.5-48-48c0-32 0-64 0-96c0-26.5 21.5-48 48-48c53.3 0 106.7 0 160 0c26.5 0 48 21.5 48 48c0 32 0 64 0 96c0 26.5-21.5 48-48 48c-8 0-16 0-24 0c-10.7 0-21.3 0-32 0c0 3.3 0 6.7 0 10c-14.4 10-23.8 26.6-24 45.5c0 10.8 0 21.7 0 32.5c-45.3 0-90.7 0-136 0c0 13.3 0 26.7 0 40c18.7 0 37.3 0 56 0c26.5 0 48 21.5 48 48c0 32 0 64 0 96c0 26.5-21.5 48-48 48c-53.3 0-106.7 0-160 0c-26.5 0-48-21.5-48-48c0-32 0-64 0-96c0-26.5 21.5-48 48-48c18.7 0 37.3 0 56 0c0-13.3 0-26.7 0-40c-37.3 0-74.7 0-112 0c-13.3 0-24-10.7-24-24zM80 368c0 32 0 64 0 96c53.3 0 106.7 0 160 0c0-32 0-64 0-96L80 368zM240 48c0 32 0 64 0 96c53.3 0 106.7 0 160 0c0-32 0-64 0-96L240 48zM352 248c0-13.3 10.7-24 24-24s24 10.7 24 24c0 4.2 0 8.5 0 12.7c25.5-22.8 59.1-36.7 96-36.7c59.1 0 109.8 35.6 132 86.4c5.3 12.1-.3 26.3-12.4 31.6s-26.3-.3-31.6-12.4c-14.8-33.9-48.7-57.6-88-57.6c-28.5 0-54 12.3-71.6 32c10.5 0 21.1 0 31.6 0c13.3 0 24 10.7 24 24s-10.7 24-24 24c-26.7 0-53.3 0-80 0c-13.3 0-24-10.7-24-24l0-80zm.3 221.6c11.5 16.3 25.7 30.5 42 42c-22-2.6-39.4-20-42-42zm11.7-44c-5.3-12.1 .3-26.3 12.4-31.6s26.3 .3 31.6 12.4c14.8 33.9 48.7 57.6 88 57.6c28.5 0 54-12.3 71.6-32c-10.5 0-21.1 0-31.6 0c-13.3 0-24-10.7-24-24s10.7-24 24-24c26.7 0 53.3 0 80 0c13.3 0 24 10.7 24 24c0 26.7 0 53.3 0 80c0 13.3-10.7 24-24 24s-24-10.7-24-24c0-4.2 0-8.5 0-12.7c-25.5 22.8-59.1 36.7-96 36.7c-59.1 0-109.8-35.6-132-86.4zM607.7 232l8.3 0c13.3 0 24 10.7 24 24c0 3-.6 5.9-1.6 8.6c-8.8-12.1-19.1-23.1-30.7-32.6z"/></svg>
